<svg xmlns="http://www.w3.org/2000/svg" style="display: none;">
  <!-- Plotter-pluginen: ratt/styrhjul (egen ritning, samma 24x24-rutnät som
       Material-ikonerna så knappen får samma optiska storlek som övriga). -->
  <symbol id="plotter-helm" viewBox="0 0 24 24">
    <path d="M12 2a10 10 0 1 0 0 20 10 10 0 0 0 0-20zm0 2.2c.5 0 .9.4.9.9v2.2a4.8 4.8 0 0 1 3.8 3.8h2.2c.5 0 .9.4.9.9s-.4.9-.9.9h-2.2a4.8 4.8 0 0 1-3.8 3.8v2.2c0 .5-.4.9-.9.9s-.9-.4-.9-.9v-2.2a4.8 4.8 0 0 1-3.8-3.8H5.1c-.5 0-.9-.4-.9-.9s.4-.9.9-.9h2.2a4.8 4.8 0 0 1 3.8-3.8V5.1c0-.5.4-.9.9-.9zm0 4.7a3.1 3.1 0 1 0 0 6.2 3.1 3.1 0 0 0 0-6.2zm0 1.8a1.3 1.3 0 1 1 0 2.6 1.3 1.3 0 0 1 0-2.6z"/>
  </symbol>
  <!-- Man överbord-knappen i panelen. -->
  <symbol id="plotter-mob" viewBox="0 0 24 24">
    <path d="M12 2a2.2 2.2 0 1 1 0 4.4A2.2 2.2 0 0 1 12 2zm-1.6 5.6h3.2c.9 0 1.6.6 1.8 1.4l1.5 5.1c.1.5-.2 1-.7 1.1-.5.1-1-.2-1.1-.7l-1-3.4-.5 2.6 1.7 5.2c.2.6-.1 1.2-.7 1.4-.6.2-1.2-.1-1.4-.7l-1.4-4.3-1.4 4.3c-.2.6-.8.9-1.4.7-.6-.2-.9-.8-.7-1.4l1.7-5.2-.5-2.6-1 3.4c-.1.5-.6.8-1.1.7-.5-.1-.8-.6-.7-1.1l1.5-5.1c.2-.8.9-1.4 1.8-1.4z"/>
  </symbol>
</svg>
